<?xml version="1.0" standalone="no"?>
<!DOCTYPE svg PUBLIC "-//W3C//DTD SVG 20010904//EN"
 "http://www.w3.org/TR/2001/REC-SVG-20010904/DTD/svg10.dtd">
<svg version="1.0" xmlns="http://www.w3.org/2000/svg"
 width="1280.000000pt" height="640.000000pt" viewBox="0 0 1280.000000 640.000000"
 preserveAspectRatio="xMidYMid meet">

<g transform="translate(0.000000,640.000000) scale(0.100000,-0.100000)"
fill="#000000" stroke="none">
<path d="M6957 5118 c-29 -62 -442 -947 -918 -1968 l-867 -1855 221 -3 c121
-1 224 1 228 5 4 5 417 888 919 1963 502 1075 914 1958 917 1963 2 4 -97 7
-222 7 l-226 0 -52 -112z"/>
<path d="M3450 3920 l-1235 -488 0 -197 0 -197 1235 -488 1235 -488 3 210 c1
116 0 213 -2 216 -3 2 -439 166 -968 363 -530 197 -975 364 -990 371 -26 12
34 36 967 387 l995 374 0 213 c0 118 -1 214 -2 214 -2 -1 -559 -221 -1238
-490z"/>
<path d="M8080 4196 l0 -213 995 -374 c933 -351 993 -375 967 -387 -15 -7
-460 -174 -990 -371 -529 -197 -965 -361 -968 -363 -2 -3 -3 -100 -2 -216 l3
-210 1235 488 1235 488 0 197 0 197 -1200 474 c-660 261 -1217 481 -1237 489
l-38 15 0 -214z"/>
</g>
</svg>
